####
#
# OBJ File Generated by Meshlab
#
####
# Object holled.obj
#
# Vertices: 50
# Faces: 78
#
####
vn 0.000000 0.000000 1.000000
v 0.000000 0.000000 0.500000 0.752941 0.752941 0.752941
vn 0.000000 0.000000 -1.000000
v 0.000000 0.000000 -0.500000 0.752941 0.752941 0.752941
vn 0.433884 0.000000 0.900969
v 0.216942 0.000000 0.450484 0.752941 0.752941 0.752941
vn 0.781832 0.000000 0.623490
v 0.390916 0.000000 0.311745 0.752941 0.752941 0.752941
vn 0.974928 0.000000 0.222521
v 0.487464 0.000000 0.111260 0.752941 0.752941 0.752941
vn 0.974928 0.000000 -0.222521
v 0.487464 0.000000 -0.111260 0.752941 0.752941 0.752941
vn 0.781832 0.000000 -0.623490
v 0.390916 0.000000 -0.311745 0.752941 0.752941 0.752941
vn 0.433884 0.000000 -0.900969
v 0.216942 0.000000 -0.450484 0.752941 0.752941 0.752941
vn 0.306802 0.306802 0.900969
v 0.153401 0.153401 0.450484 0.752941 0.752941 0.752941
vn 0.552838 0.552838 0.623490
v 0.276419 0.276419 0.311745 0.752941 0.752941 0.752941
vn 0.689378 0.689378 0.222521
v 0.344689 0.344689 0.111260 0.752941 0.752941 0.752941
vn 0.689378 0.689378 -0.222521
v 0.344689 0.344689 -0.111260 0.752941 0.752941 0.752941
vn 0.552838 0.552838 -0.623490
v 0.276419 0.276419 -0.311745 0.752941 0.752941 0.752941
vn 0.306802 0.306802 -0.900969
v 0.153401 0.153401 -0.450484 0.752941 0.752941 0.752941
vn 0.000000 0.433884 0.900969
v 0.000000 0.216942 0.450484 0.752941 0.752941 0.752941
vn 0.000000 0.781832 0.623490
v 0.000000 0.390916 0.311745 0.752941 0.752941 0.752941
vn 0.000000 0.974928 0.222521
v 0.000000 0.487464 0.111260 0.752941 0.752941 0.752941
vn 0.000000 0.974928 -0.222521
v 0.000000 0.487464 -0.111260 0.752941 0.752941 0.752941
vn 0.000000 0.781832 -0.623490
v 0.000000 0.390916 -0.311745 0.752941 0.752941 0.752941
vn 0.000000 0.433884 -0.900969
v 0.000000 0.216942 -0.450484 0.752941 0.752941 0.752941
vn -0.306802 0.306802 0.900969
v -0.153401 0.153401 0.450484 0.752941 0.752941 0.752941
vn -0.552838 0.552838 0.623490
v -0.276419 0.276419 0.311745 0.752941 0.752941 0.752941
vn -0.689378 0.689378 0.222521
v -0.344689 0.344689 0.111260 0.752941 0.752941 0.752941
vn -0.689378 0.689378 -0.222521
v -0.344689 0.344689 -0.111260 0.752941 0.752941 0.752941
vn -0.552838 0.552838 -0.623490
v -0.276419 0.276419 -0.311745 0.752941 0.752941 0.752941
vn -0.306802 0.306802 -0.900969
v -0.153401 0.153401 -0.450484 0.752941 0.752941 0.752941
vn -0.433884 0.000000 0.900969
v -0.216942 0.000000 0.450484 0.752941 0.752941 0.752941
vn -0.781832 0.000000 0.623490
v -0.390916 0.000000 0.311745 0.752941 0.752941 0.752941
vn -0.974928 0.000000 0.222521
v -0.487464 0.000000 0.111260 0.752941 0.752941 0.752941
vn -0.974928 0.000000 -0.222521
v -0.487464 0.000000 -0.111260 0.752941 0.752941 0.752941
vn -0.781832 0.000000 -0.623490
v -0.390916 0.000000 -0.311745 0.752941 0.752941 0.752941
vn -0.433884 0.000000 -0.900969
v -0.216942 0.000000 -0.450484 0.752941 0.752941 0.752941
vn -0.306802 -0.306802 0.900969
v -0.153401 -0.153401 0.450484 0.752941 0.752941 0.752941
vn -0.552838 -0.552838 0.623490
v -0.276419 -0.276419 0.311745 0.752941 0.752941 0.752941
vn -0.689378 -0.689378 0.222521
v -0.344689 -0.344689 0.111260 0.752941 0.752941 0.752941
vn -0.689378 -0.689378 -0.222521
v -0.344689 -0.344689 -0.111260 0.752941 0.752941 0.752941
vn -0.552838 -0.552838 -0.623490
v -0.276419 -0.276419 -0.311745 0.752941 0.752941 0.752941
vn -0.306802 -0.306802 -0.900969
v -0.153401 -0.153401 -0.450484 0.752941 0.752941 0.752941
vn -0.000000 -0.433884 0.900969
v -0.000000 -0.216942 0.450484 0.752941 0.752941 0.752941
vn -0.000000 -0.781832 0.623490
v -0.000000 -0.390916 0.311745 0.752941 0.752941 0.752941
vn -0.000000 -0.974928 0.222521
v -0.000000 -0.487464 0.111260 0.752941 0.752941 0.752941
vn -0.000000 -0.974928 -0.222521
v -0.000000 -0.487464 -0.111260 0.752941 0.752941 0.752941
vn -0.000000 -0.781832 -0.623490
v -0.000000 -0.390916 -0.311745 0.752941 0.752941 0.752941
vn -0.000000 -0.433884 -0.900969
v -0.000000 -0.216942 -0.450484 0.752941 0.752941 0.752941
vn 0.306802 -0.306802 0.900969
v 0.153401 -0.153401 0.450484 0.752941 0.752941 0.752941
vn 0.552838 -0.552838 0.623490
v 0.276419 -0.276419 0.311745 0.752941 0.752941 0.752941
vn 0.689378 -0.689378 0.222521
v 0.344689 -0.344689 0.111260 0.752941 0.752941 0.752941
vn 0.689378 -0.689378 -0.222521
v 0.344689 -0.344689 -0.111260 0.752941 0.752941 0.752941
vn 0.552838 -0.552838 -0.623490
v 0.276419 -0.276419 -0.311745 0.752941 0.752941 0.752941
vn 0.306802 -0.306802 -0.900969
v 0.153401 -0.153401 -0.450484 0.752941 0.752941 0.752941
# 50 vertices, 0 vertices normals

f 3//3 9//9 1//1
f 9//9 15//15 1//1
f 15//15 21//21 1//1
f 21//21 27//27 1//1
f 27//27 33//33 1//1
f 33//33 39//39 1//1
f 39//39 45//45 1//1
f 45//45 3//3 1//1
f 14//14 2//2 20//20
f 20//20 2//2 26//26
f 26//26 2//2 32//32
f 32//32 2//2 38//38
f 38//38 2//2 44//44
f 3//3 4//4 10//10
f 3//3 10//10 9//9
f 4//4 5//5 11//11
f 4//4 11//11 10//10
f 5//5 6//6 12//12
f 5//5 12//12 11//11
f 6//6 7//7 13//13
f 6//6 13//13 12//12
f 9//9 10//10 16//16
f 9//9 16//16 15//15
f 10//10 11//11 17//17
f 10//10 17//17 16//16
f 11//11 12//12 18//18
f 11//11 18//18 17//17
f 12//12 13//13 19//19
f 12//12 19//19 18//18
f 13//13 14//14 20//20
f 13//13 20//20 19//19
f 17//17 18//18 24//24
f 17//17 24//24 23//23
f 18//18 19//19 25//25
f 18//18 25//25 24//24
f 19//19 20//20 26//26
f 19//19 26//26 25//25
f 21//21 28//28 27//27
f 23//23 24//24 30//30
f 23//23 30//30 29//29
f 24//24 25//25 31//31
f 24//24 31//31 30//30
f 25//25 26//26 32//32
f 25//25 32//32 31//31
f 27//27 28//28 34//34
f 27//27 34//34 33//33
f 28//28 29//29 35//35
f 28//28 35//35 34//34
f 29//29 30//30 36//36
f 29//29 36//36 35//35
f 30//30 31//31 37//37
f 30//30 37//37 36//36
f 31//31 32//32 38//38
f 31//31 38//38 37//37
f 33//33 34//34 40//40
f 33//33 40//40 39//39
f 34//34 35//35 41//41
f 34//34 41//41 40//40
f 35//35 36//36 42//42
f 35//35 42//42 41//41
f 36//36 37//37 43//43
f 36//36 43//43 42//42
f 37//37 38//38 44//44
f 37//37 44//44 43//43
f 39//39 40//40 46//46
f 39//39 46//46 45//45
f 40//40 41//41 47//47
f 40//40 47//47 46//46
f 41//41 42//42 48//48
f 41//41 48//48 47//47
f 45//45 46//46 4//4
f 45//45 4//4 3//3
f 46//46 47//47 5//5
f 46//46 5//5 4//4
f 47//47 48//48 6//6
f 47//47 6//6 5//5
f 48//48 49//49 7//7
f 48//48 7//7 6//6
# 78 faces, 0 coords texture

# End of File
